# Tiled2Unity generated file. Do not modify by hand.
# Wavefront file for 'level1_mesh_0003.obj'

# Vertices (Count = 68)
v -1008 -2496 0
v -1024 -2496 0
v -1024 -2480 0
v -1008 -2480 0
v -1024 -2496 0
v -1040 -2496 0
v -1040 -2480 0
v -1024 -2480 0
v -1040 -2496 0
v -1056 -2496 0
v -1056 -2480 0
v -1040 -2480 0
v -1008 -2512 0
v -1024 -2512 0
v -1024 -2496 0
v -1008 -2496 0
v -1024 -2512 0
v -1040 -2512 0
v -1040 -2496 0
v -1024 -2496 0
v -1040 -2512 0
v -1056 -2512 0
v -1056 -2496 0
v -1040 -2496 0
v -1056 -2512 0
v -1072 -2512 0
v -1072 -2496 0
v -1056 -2496 0
v -1072 -2512 0
v -1088 -2512 0
v -1088 -2496 0
v -1072 -2496 0
v -1008 -2528 0
v -1024 -2528 0
v -1024 -2512 0
v -1008 -2512 0
v -1024 -2528 0
v -1040 -2528 0
v -1040 -2512 0
v -1024 -2512 0
v -1040 -2528 0
v -1056 -2528 0
v -1056 -2512 0
v -1040 -2512 0
v -1056 -2528 0
v -1072 -2528 0
v -1072 -2512 0
v -1056 -2512 0
v -1072 -2528 0
v -1088 -2528 0
v -1088 -2512 0
v -1072 -2512 0
v -1056 -2544 0
v -1072 -2544 0
v -1072 -2528 0
v -1056 -2528 0
v -1072 -2544 0
v -1088 -2544 0
v -1088 -2528 0
v -1072 -2528 0
v -1072 -2560 0
v -1088 -2560 0
v -1088 -2544 0
v -1072 -2544 0
v -1088 -2560 0
v -1104 -2560 0
v -1104 -2544 0
v -1088 -2544 0

# Texture cooridinates (Count = 68)
vt 0.8449497 0.6001221
vt 0.8619469 0.6001221
vt 0.8619469 0.6284493
vt 0.8449497 0.6284493
vt 0.862191 0.6001221
vt 0.8791883 0.6001221
vt 0.8791883 0.6284493
vt 0.862191 0.6284493
vt 0.8794324 0.6001221
vt 0.8964297 0.6001221
vt 0.8964297 0.6284493
vt 0.8794324 0.6284493
vt 0.8449497 0.5715506
vt 0.8619469 0.5715506
vt 0.8619469 0.599878
vt 0.8449497 0.599878
vt 0.862191 0.5715506
vt 0.8791883 0.5715506
vt 0.8791883 0.599878
vt 0.862191 0.599878
vt 0.8794324 0.5715506
vt 0.8964297 0.5715506
vt 0.8964297 0.599878
vt 0.8794324 0.599878
vt 0.8966738 0.5715506
vt 0.913671 0.5715506
vt 0.913671 0.599878
vt 0.8966738 0.599878
vt 0.9139152 0.5715506
vt 0.9309124 0.5715506
vt 0.9309124 0.599878
vt 0.9139152 0.599878
vt 0.8449497 0.5429792
vt 0.8619469 0.5429792
vt 0.8619469 0.5713065
vt 0.8449497 0.5713065
vt 0.862191 0.5429792
vt 0.8791883 0.5429792
vt 0.8791883 0.5713065
vt 0.862191 0.5713065
vt 0.8794324 0.5429792
vt 0.8964297 0.5429792
vt 0.8964297 0.5713065
vt 0.8794324 0.5713065
vt 0.8966738 0.5429792
vt 0.913671 0.5429792
vt 0.913671 0.5713065
vt 0.8966738 0.5713065
vt 0.9139152 0.5429792
vt 0.9309124 0.5429792
vt 0.9309124 0.5713065
vt 0.9139152 0.5713065
vt 0.8966738 0.5144078
vt 0.913671 0.5144078
vt 0.913671 0.5427351
vt 0.8966738 0.5427351
vt 0.9139152 0.5144078
vt 0.9309124 0.5144078
vt 0.9309124 0.5427351
vt 0.9139152 0.5427351
vt 0.9139152 0.4858363
vt 0.9309124 0.4858363
vt 0.9309124 0.5141636
vt 0.9139152 0.5141636
vt 0.9311566 0.4858363
vt 0.9481538 0.4858363
vt 0.9481538 0.5141636
vt 0.9311566 0.5141636

# Normal
vn 0 0 -1

# Mesh description
g level1_mesh_0003

# Faces
f 1/1/1 2/2/1 3/3/1 4/4/1
f 5/5/1 6/6/1 7/7/1 8/8/1
f 9/9/1 10/10/1 11/11/1 12/12/1
f 13/13/1 14/14/1 15/15/1 16/16/1
f 17/17/1 18/18/1 19/19/1 20/20/1
f 21/21/1 22/22/1 23/23/1 24/24/1
f 25/25/1 26/26/1 27/27/1 28/28/1
f 29/29/1 30/30/1 31/31/1 32/32/1
f 33/33/1 34/34/1 35/35/1 36/36/1
f 37/37/1 38/38/1 39/39/1 40/40/1
f 41/41/1 42/42/1 43/43/1 44/44/1
f 45/45/1 46/46/1 47/47/1 48/48/1
f 49/49/1 50/50/1 51/51/1 52/52/1
f 53/53/1 54/54/1 55/55/1 56/56/1
f 57/57/1 58/58/1 59/59/1 60/60/1
f 61/61/1 62/62/1 63/63/1 64/64/1
f 65/65/1 66/66/1 67/67/1 68/68/1

