# Tiled2Unity generated file. Do not modify by hand.
# Wavefront file for 'level1_mesh_0001.obj'

# Vertices (Count = 24)
v -672 -2416 0
v -688 -2416 0
v -688 -2400 0
v -672 -2400 0
v -688 -2416 0
v -704 -2416 0
v -704 -2400 0
v -688 -2400 0
v -672 -2432 0
v -688 -2432 0
v -688 -2416 0
v -672 -2416 0
v -688 -2432 0
v -704 -2432 0
v -704 -2416 0
v -688 -2416 0
v -1264 -2432 0
v -1280 -2432 0
v -1280 -2416 0
v -1264 -2416 0
v -1280 -2432 0
v -1296 -2432 0
v -1296 -2416 0
v -1280 -2416 0

# Texture cooridinates (Count = 24)
vt 0.3449497 0.6001221
vt 0.3619469 0.6001221
vt 0.3619469 0.6284493
vt 0.3449497 0.6284493
vt 0.362191 0.6001221
vt 0.3791883 0.6001221
vt 0.3791883 0.6284493
vt 0.362191 0.6284493
vt 0.3449497 0.5715506
vt 0.3619469 0.5715506
vt 0.3619469 0.599878
vt 0.3449497 0.599878
vt 0.362191 0.5715506
vt 0.3791883 0.5715506
vt 0.3791883 0.599878
vt 0.362191 0.599878
vt 0.3449497 0.5429792
vt 0.3619469 0.5429792
vt 0.3619469 0.5713065
vt 0.3449497 0.5713065
vt 0.362191 0.5429792
vt 0.3791883 0.5429792
vt 0.3791883 0.5713065
vt 0.362191 0.5713065

# Normal
vn 0 0 -1

# Mesh description
g level1_mesh_0001

# Faces
f 1/1/1 2/2/1 3/3/1 4/4/1
f 5/5/1 6/6/1 7/7/1 8/8/1
f 9/9/1 10/10/1 11/11/1 12/12/1
f 13/13/1 14/14/1 15/15/1 16/16/1
f 17/17/1 18/18/1 19/19/1 20/20/1
f 21/21/1 22/22/1 23/23/1 24/24/1

